<svg data-v-29081953="" xmlns="http://www.w3.org/2000/svg" viewBox="0 0 300 300"><!----><defs data-v-29081953=""><!----></defs><rect data-v-29081953="" fill="transparent" x="0" y="0" width="300px" height="300px" class="logo-background-square"></rect><defs data-v-29081953=""><!----></defs><g data-v-29081953="" id="7bbe60a0-4ce1-4a7d-ae84-0ba940ba11dc" fill="#000000" transform="matrix(3.83977653345413,0,0,3.83977653345413,92.58574488080066,113.88690089724672)"><path d="M3.81 5.61L3.81 5.61L3.81 5.61Q3.98 5.61 4.19 5.63L4.19 5.63L4.19 5.63Q4.41 5.66 4.62 5.69L4.62 5.69L4.62 5.69Q4.83 5.73 5.00 5.76L5.00 5.76L5.00 5.76Q5.18 5.80 5.26 5.82L5.26 5.82L5.04 6.96L5.04 6.96Q4.89 6.90 4.53 6.83L4.53 6.83L4.53 6.83Q4.17 6.75 3.61 6.75L3.61 6.75L3.61 6.75Q3.25 6.75 2.89 6.83L2.89 6.83L2.89 6.83Q2.53 6.90 2.42 6.93L2.42 6.93L2.42 13.05L1.12 13.05L1.12 6.08L1.12 6.08Q1.58 5.91 2.27 5.76L2.27 5.76L2.27 5.76Q2.95 5.61 3.81 5.61ZM6.12 9.42L6.12 9.42L6.12 9.42Q6.12 8.46 6.40 7.74L6.40 7.74L6.40 7.74Q6.68 7.01 7.14 6.54L7.14 6.54L7.14 6.54Q7.60 6.06 8.20 5.82L8.20 5.82L8.20 5.82Q8.81 5.59 9.44 5.59L9.44 5.59L9.44 5.59Q10.91 5.59 11.69 6.50L11.69 6.50L11.69 6.50Q12.47 7.42 12.47 9.30L12.47 9.30L12.47 9.30Q12.47 9.38 12.47 9.51L12.47 9.51L12.47 9.51Q12.47 9.65 12.46 9.76L12.46 9.76L7.48 9.76L7.48 9.76Q7.56 10.89 8.13 11.48L8.13 11.48L8.13 11.48Q8.71 12.07 9.93 12.07L9.93 12.07L9.93 12.07Q10.61 12.07 11.08 11.95L11.08 11.95L11.08 11.95Q11.55 11.83 11.79 11.72L11.79 11.72L11.97 12.81L11.97 12.81Q11.73 12.94 11.14 13.08L11.14 13.08L11.14 13.08Q10.54 13.22 9.79 13.22L9.79 13.22L9.79 13.22Q8.83 13.22 8.14 12.93L8.14 12.93L8.14 12.93Q7.45 12.64 7 12.14L7 12.14L7 12.14Q6.55 11.63 6.33 10.94L6.33 10.94L6.33 10.94Q6.12 10.25 6.12 9.42ZM7.50 8.71L11.12 8.71L11.12 8.71Q11.13 7.83 10.68 7.26L10.68 7.26L10.68 7.26Q10.22 6.69 9.42 6.69L9.42 6.69L9.42 6.69Q8.97 6.69 8.63 6.87L8.63 6.87L8.63 6.87Q8.29 7.04 8.05 7.32L8.05 7.32L8.05 7.32Q7.81 7.60 7.68 7.97L7.68 7.97L7.68 7.97Q7.55 8.33 7.50 8.71L7.50 8.71ZM17.51 13.22L17.51 13.22L17.51 13.22Q16.63 13.22 15.97 12.94L15.97 12.94L15.97 12.94Q15.30 12.66 14.85 12.15L14.85 12.15L14.85 12.15Q14.39 11.65 14.17 10.96L14.17 10.96L14.17 10.96Q13.94 10.26 13.94 9.42L13.94 9.42L13.94 9.42Q13.94 8.58 14.19 7.88L14.19 7.88L14.19 7.88Q14.43 7.18 14.88 6.67L14.88 6.67L14.88 6.67Q15.33 6.16 15.98 5.87L15.98 5.87L15.98 5.87Q16.63 5.59 17.43 5.59L17.43 5.59L17.43 5.59Q17.92 5.59 18.41 5.67L18.41 5.67L18.41 5.67Q18.90 5.75 19.35 5.94L19.35 5.94L19.05 7.04L19.05 7.04Q18.76 6.90 18.38 6.82L18.38 6.82L18.38 6.82Q17.99 6.73 17.56 6.73L17.56 6.73L17.56 6.73Q16.46 6.73 15.88 7.42L15.88 7.42L15.88 7.42Q15.30 8.11 15.30 9.42L15.30 9.42L15.30 9.42Q15.30 10.01 15.44 10.50L15.44 10.50L15.44 10.50Q15.57 10.99 15.86 11.34L15.86 11.34L15.86 11.34Q16.14 11.69 16.59 11.88L16.59 11.88L16.59 11.88Q17.04 12.07 17.68 12.07L17.68 12.07L17.68 12.07Q18.20 12.07 18.62 11.97L18.62 11.97L18.62 11.97Q19.04 11.87 19.28 11.76L19.28 11.76L19.46 12.85L19.46 12.85Q19.35 12.92 19.14 12.98L19.14 12.98L19.14 12.98Q18.93 13.05 18.66 13.10L18.66 13.10L18.66 13.10Q18.40 13.15 18.09 13.18L18.09 13.18L18.09 13.18Q17.79 13.22 17.51 13.22ZM23.55 5.61L23.55 5.61L23.55 5.61Q23.72 5.61 23.93 5.63L23.93 5.63L23.93 5.63Q24.15 5.66 24.36 5.69L24.36 5.69L24.36 5.69Q24.57 5.73 24.75 5.76L24.75 5.76L24.75 5.76Q24.92 5.80 25.00 5.82L25.00 5.82L24.78 6.96L24.78 6.96Q24.63 6.90 24.27 6.83L24.27 6.83L24.27 6.83Q23.91 6.75 23.35 6.75L23.35 6.75L23.35 6.75Q22.99 6.75 22.63 6.83L22.63 6.83L22.63 6.83Q22.27 6.90 22.16 6.93L22.16 6.93L22.16 13.05L20.86 13.05L20.86 6.08L20.86 6.08Q21.32 5.91 22.01 5.76L22.01 5.76L22.01 5.76Q22.69 5.61 23.55 5.61ZM25.86 9.42L25.86 9.42L25.86 9.42Q25.86 8.46 26.14 7.74L26.14 7.74L26.14 7.74Q26.42 7.01 26.88 6.54L26.88 6.54L26.88 6.54Q27.34 6.06 27.94 5.82L27.94 5.82L27.94 5.82Q28.55 5.59 29.18 5.59L29.18 5.59L29.18 5.59Q30.65 5.59 31.43 6.50L31.43 6.50L31.43 6.50Q32.21 7.42 32.21 9.30L32.21 9.30L32.21 9.30Q32.21 9.38 32.21 9.51L32.21 9.51L32.21 9.51Q32.21 9.65 32.20 9.76L32.20 9.76L27.22 9.76L27.22 9.76Q27.30 10.89 27.87 11.48L27.87 11.48L27.87 11.48Q28.45 12.07 29.67 12.07L29.67 12.07L29.67 12.07Q30.35 12.07 30.82 11.95L30.82 11.95L30.82 11.95Q31.29 11.83 31.53 11.72L31.53 11.72L31.71 12.81L31.71 12.81Q31.47 12.94 30.88 13.08L30.88 13.08L30.88 13.08Q30.28 13.22 29.53 13.22L29.53 13.22L29.53 13.22Q28.57 13.22 27.88 12.93L27.88 12.93L27.88 12.93Q27.19 12.64 26.74 12.14L26.74 12.14L26.74 12.14Q26.29 11.63 26.08 10.94L26.08 10.94L26.08 10.94Q25.86 10.25 25.86 9.42ZM27.24 8.71L30.86 8.71L30.86 8.71Q30.87 7.83 30.42 7.26L30.42 7.26L30.42 7.26Q29.96 6.69 29.16 6.69L29.16 6.69L29.16 6.69Q28.71 6.69 28.37 6.87L28.37 6.87L28.37 6.87Q28.03 7.04 27.79 7.32L27.79 7.32L27.79 7.32Q27.55 7.60 27.42 7.97L27.42 7.97L27.42 7.97Q27.29 8.33 27.24 8.71L27.24 8.71ZM41.17 13.05L40.04 13.05L40.04 13.05Q39.65 12.04 39.21 10.75L39.21 10.75L39.21 10.75Q38.77 9.45 38.40 8.05L38.40 8.05L38.40 8.05Q38.04 9.45 37.60 10.75L37.60 10.75L37.60 10.75Q37.17 12.04 36.78 13.05L36.78 13.05L35.64 13.05L35.64 13.05Q35 11.61 34.38 9.76L34.38 9.76L34.38 9.76Q33.77 7.91 33.22 5.77L33.22 5.77L34.62 5.77L34.62 5.77Q34.76 6.43 34.96 7.20L34.96 7.20L34.96 7.20Q35.15 7.97 35.37 8.74L35.37 8.74L35.37 8.74Q35.59 9.51 35.83 10.22L35.83 10.22L35.83 10.22Q36.06 10.93 36.27 11.47L36.27 11.47L36.27 11.47Q36.51 10.81 36.74 10.07L36.74 10.07L36.74 10.07Q36.97 9.34 37.18 8.59L37.18 8.59L37.18 8.59Q37.39 7.84 37.58 7.12L37.58 7.12L37.58 7.12Q37.77 6.40 37.91 5.77L37.91 5.77L38.99 5.77L38.99 5.77Q39.12 6.40 39.30 7.12L39.30 7.12L39.30 7.12Q39.48 7.84 39.69 8.59L39.69 8.59L39.69 8.59Q39.90 9.34 40.13 10.07L40.13 10.07L40.13 10.07Q40.36 10.81 40.60 11.47L40.60 11.47L40.60 11.47Q40.81 10.93 41.04 10.22L41.04 10.22L41.04 10.22Q41.27 9.51 41.50 8.74L41.50 8.74L41.50 8.74Q41.72 7.97 41.92 7.20L41.92 7.20L41.92 7.20Q42.11 6.43 42.25 5.77L42.25 5.77L43.60 5.77L43.60 5.77Q43.05 7.91 42.43 9.76L42.43 9.76L42.43 9.76Q41.82 11.61 41.17 13.05L41.17 13.05Z"></path></g><defs data-v-29081953=""><linearGradient data-v-29081953="" gradientTransform="rotate(25)" id="5820a6a3-b9ad-428f-ad08-fcabf5adad0f" x1="0%" y1="0%" x2="100%" y2="0%"><stop data-v-29081953="" offset="0%" stop-color="#0076DD" stop-opacity="1"></stop><stop data-v-29081953="" offset="100%" stop-color="#E600E9" stop-opacity="1"></stop></linearGradient></defs><g data-v-29081953="" id="912fa062-91e8-40dd-b489-95fc2bd0d054" stroke="none" fill="url(#5820a6a3-b9ad-428f-ad08-fcabf5adad0f)" transform="matrix(0.5995395689375457,0,0,0.5995395689375457,32.02612419054303,120.05299807415719)"><path d="M27.3 40.6h-4.6c-5.2 0-9.4 4.2-9.4 9.4s4.2 9.4 9.4 9.4h4.6L24 62.7c-1.8 1.8-2.7 4.1-2.7 6.6s1 4.9 2.7 6.6c1.8 1.8 4.1 2.7 6.6 2.7s4.9-1 6.6-2.7l3.3-3.3v4.6c0 5.2 4.2 9.4 9.4 9.4s9.4-4.2 9.4-9.4v-4.6l3.3 3.3c1.8 1.8 4.1 2.7 6.6 2.7s4.9-1 6.6-2.7c1.8-1.8 2.7-4.1 2.7-6.6s-1-4.9-2.7-6.6l-3.3-3.3h4.6c5.2 0 9.4-4.2 9.4-9.4s-4.2-9.4-9.4-9.4h-4.6l3.3-3.3c3.7-3.7 3.7-9.6 0-13.3-1.8-1.8-4.1-2.7-6.6-2.7s-4.9 1-6.6 2.7l-3.3 3.3v-4.6c0-5.2-4.2-9.4-9.4-9.4s-9.4 4.2-9.4 9.4v4.6L37.2 24c-1.8-1.8-4.1-2.7-6.6-2.7s-4.9 1-6.6 2.7c-3.7 3.7-3.7 9.6 0 13.3l3.3 3.3zm-4.6 15.1c-3.1 0-5.7-2.5-5.7-5.7 0-3.1 2.5-5.7 5.7-5.7H31l5.7 5.7-5.7 5.7h-8.3zm25-11.4h4.7l3.3 3.3v4.7l-3.3 3.3h-4.7l-3.3-3.3v-4.7l3.3-3.3zm-7.1 9.6v1.8h-4.3l3-3 1.3 1.2zm5.5 5.5l1.3 1.3-3 3v-4.3h1.7zm7.8 0h1.8v4.3l-3-3 1.2-1.3zm5.5-5.5l1.3-1.3 3 3h-4.3v-1.7zm0-7.8v-1.8h4.3l-3 3-1.3-1.2zm-5.5-5.5l-1.3-1.3 3-3v4.3h-1.7zm-7.8 0h-1.8v-4.3l3 3-1.2 1.3zm-5.5 5.5l-1.3 1.3-3-3h4.3v1.7zm-5.9 27.2c-1.1 1.1-2.5 1.6-4 1.6s-2.9-.6-4-1.6c-1.1-1.1-1.6-2.5-1.6-4s.6-2.9 1.6-4l5.9-5.9h8v8l-5.9 5.9zm21 4c0 3.1-2.5 5.7-5.7 5.7s-5.7-2.5-5.7-5.7V69l5.7-5.7 5.7 5.7v8.3zm17.6-12c1.1 1.1 1.6 2.5 1.6 4s-.6 2.9-1.6 4-2.5 1.6-4 1.6-2.9-.6-4-1.6l-5.9-5.9v-8h8l5.9 5.9zm4-21c3.1 0 5.7 2.5 5.7 5.7 0 3.1-2.5 5.7-5.7 5.7H69L63.3 50l5.7-5.7h8.3zm-12-17.6c1.1-1.1 2.5-1.6 4-1.6s2.9.6 4 1.6c2.2 2.2 2.2 5.8 0 8l-5.9 5.9h-8v-8l5.9-5.9zm-21-4c0-3.1 2.5-5.7 5.7-5.7s5.7 2.5 5.7 5.7V31L50 36.7 44.3 31v-8.3zm-17.6 4c1.1-1.1 2.5-1.6 4-1.6s2.9.6 4 1.6l5.9 5.9v8h-8l-5.9-5.9c-2.2-2.2-2.2-5.8 0-8z"></path></g><!----></svg>